<svg width="20" height="20" viewBox="0 0 20 20" fill="none" xmlns="http://www.w3.org/2000/svg">
<path fill-rule="evenodd" clip-rule="evenodd" d="M0.837668 6.99001C0.612234 6.99001 0.396033 6.90046 0.236627 6.74105C0.0772212 6.58165 -0.0123321 6.36545 -0.0123321 6.14001C-0.0123321 5.91458 0.0772212 5.69838 0.236627 5.53897C0.396033 5.37957 0.612234 5.29001 0.837668 5.29001H4.07867L0.230668 1.43901C0.0866646 1.27698 0.0100126 1.06604 0.0163912 0.849358C0.0227698 0.632674 0.111697 0.426614 0.264982 0.273328C0.418268 0.120043 0.624328 0.0311157 0.841012 0.0247371C1.0577 0.0183585 1.26863 0.0950104 1.43067 0.239014L5.27967 4.08901V0.839014C5.27967 0.61358 5.36922 0.397379 5.52863 0.237973C5.68803 0.078567 5.90423 -0.0109863 6.12967 -0.0109863C6.3551 -0.0109863 6.5713 0.078567 6.73071 0.237973C6.89011 0.397379 6.97967 0.61358 6.97967 0.839014V6.13901C6.97967 6.36445 6.89011 6.58065 6.73071 6.74005C6.5713 6.89946 6.3551 6.98901 6.12967 6.98901H0.837668V6.99001ZM19.1247 6.99001C19.3501 6.99001 19.5663 6.90046 19.7257 6.74105C19.8851 6.58165 19.9747 6.36545 19.9747 6.14001C19.9747 5.91458 19.8851 5.69838 19.7257 5.53897C19.5663 5.37957 19.3501 5.29001 19.1247 5.29001H15.8827L19.7317 1.44001C19.8757 1.27798 19.9523 1.06704 19.9459 0.850358C19.9396 0.633674 19.8506 0.427614 19.6974 0.274328C19.5441 0.121043 19.338 0.0321157 19.1213 0.0257371C18.9046 0.0193585 18.6937 0.0960104 18.5317 0.240014L14.6827 4.09001V0.839014C14.6827 0.72739 14.6607 0.61686 14.618 0.513733C14.5752 0.410606 14.5126 0.316903 14.4337 0.237973C14.3548 0.159043 14.2611 0.0964326 14.1579 0.0537161C14.0548 0.0109996 13.9443 -0.0109863 13.8327 -0.0109863C13.721 -0.0109863 13.6105 0.0109996 13.5074 0.0537161C13.4043 0.0964326 13.3106 0.159043 13.2316 0.237973C13.1527 0.316903 13.0901 0.410606 13.0474 0.513733C13.0047 0.61686 12.9827 0.72739 12.9827 0.839014V6.13901C12.9827 6.36445 13.0722 6.58065 13.2316 6.74005C13.391 6.89946 13.6072 6.98901 13.8327 6.98901H19.1267L19.1247 6.99001ZM0.837668 12.99C0.619366 13.0006 0.413507 13.0948 0.262754 13.253C0.112001 13.4113 0.027911 13.6215 0.027911 13.84C0.027911 14.0586 0.112001 14.2688 0.262754 14.427C0.413507 14.5852 0.619366 14.6794 0.837668 14.69H4.07867L0.230668 18.543C0.144084 18.62 0.0741415 18.7138 0.0251342 18.8188C-0.0238732 18.9237 -0.0509111 19.0376 -0.0543194 19.1534C-0.0577278 19.2691 -0.0374348 19.3844 0.0053138 19.4921C0.0480624 19.5997 0.112364 19.6975 0.194272 19.7794C0.276179 19.8613 0.373964 19.9256 0.481622 19.9684C0.589279 20.0111 0.704539 20.0314 0.820323 20.028C0.936108 20.0246 1.04997 19.9976 1.15493 19.9485C1.25989 19.8995 1.35372 19.8296 1.43067 19.743L5.27967 15.892V19.139C5.27967 19.3644 5.36922 19.5806 5.52863 19.7401C5.68803 19.8995 5.90423 19.989 6.12967 19.989C6.3551 19.989 6.5713 19.8995 6.73071 19.7401C6.89011 19.5806 6.97967 19.3644 6.97967 19.139V13.839C6.97967 13.6136 6.89011 13.3974 6.73071 13.238C6.5713 13.0786 6.3551 12.989 6.12967 12.989H0.837668V12.99ZM19.1247 12.99C19.343 13.0006 19.5488 13.0948 19.6996 13.253C19.8503 13.4113 19.9344 13.6215 19.9344 13.84C19.9344 14.0586 19.8503 14.2688 19.6996 14.427C19.5488 14.5852 19.343 14.6794 19.1247 14.69H15.8827L19.7317 18.539C19.8183 18.616 19.8882 18.7098 19.9372 18.8148C19.9862 18.9197 20.0132 19.0336 20.0167 19.1494C20.0201 19.2651 19.9998 19.3804 19.957 19.4881C19.9143 19.5957 19.85 19.6935 19.7681 19.7754C19.6862 19.8573 19.5884 19.9216 19.4807 19.9644C19.3731 20.0071 19.2578 20.0274 19.142 20.024C19.0262 20.0206 18.9124 19.9936 18.8074 19.9445C18.7024 19.8955 18.6086 19.8256 18.5317 19.739L14.6827 15.888V19.135C14.6827 19.2466 14.6607 19.3572 14.618 19.4603C14.5752 19.5634 14.5126 19.6571 14.4337 19.7361C14.3548 19.815 14.2611 19.8776 14.1579 19.9203C14.0548 19.963 13.9443 19.985 13.8327 19.985C13.721 19.985 13.6105 19.963 13.5074 19.9203C13.4043 19.8776 13.3106 19.815 13.2316 19.7361C13.1527 19.6571 13.0901 19.5634 13.0474 19.4603C13.0047 19.3572 12.9827 19.2466 12.9827 19.135V13.835C12.9827 13.6096 13.0722 13.3934 13.2316 13.234C13.391 13.0746 13.6072 12.985 13.8327 12.985H19.1267L19.1247 12.99Z" fill="#1F1F1F"/>
</svg>
