<svg width="20" height="20" viewBox="0 0 20 20" fill="none" xmlns="http://www.w3.org/2000/svg">
<g clip-path="url(#clip0)">
<path fill-rule="evenodd" clip-rule="evenodd" d="M6.142 -0.0119934C6.36743 -0.0119934 6.58363 0.0775599 6.74304 0.236966C6.90245 0.396372 6.992 0.612573 6.992 0.838007C6.992 1.06344 6.90245 1.27964 6.74304 1.43905C6.58363 1.59845 6.36743 1.68801 6.142 1.68801H2.9L6.749 5.53801C6.83558 5.61495 6.90553 5.70879 6.95453 5.81374C7.00354 5.9187 7.03058 6.03257 7.03399 6.14835C7.0374 6.26414 7.0171 6.3794 6.97435 6.48705C6.93161 6.59471 6.8673 6.6925 6.7854 6.7744C6.70349 6.85631 6.6057 6.92061 6.49805 6.96336C6.39039 7.00611 6.27513 7.0264 6.15934 7.02299C6.04356 7.01959 5.92969 6.99255 5.82474 6.94354C5.71978 6.89453 5.62595 6.82459 5.549 6.73801L1.7 2.89001V6.13801C1.7 6.36344 1.61045 6.57964 1.45104 6.73905C1.29163 6.89845 1.07543 6.98801 0.85 6.98801C0.624566 6.98801 0.408365 6.89845 0.248959 6.73905C0.0895533 6.57964 0 6.36344 0 6.13801L0 0.838007C0 0.612573 0.0895533 0.396372 0.248959 0.236966C0.408365 0.0775599 0.624566 -0.0119934 0.85 -0.0119934H6.142ZM13.853 -0.0119934C13.6276 -0.0119934 13.4114 0.0775599 13.252 0.236966C13.0926 0.396372 13.003 0.612573 13.003 0.838007C13.003 1.06344 13.0926 1.27964 13.252 1.43905C13.4114 1.59845 13.6276 1.68801 13.853 1.68801H17.095L13.246 5.53801C13.1594 5.61495 13.0895 5.70879 13.0405 5.81374C12.9915 5.9187 12.9644 6.03257 12.961 6.14835C12.9576 6.26414 12.9779 6.3794 13.0206 6.48705C13.0634 6.59471 13.1277 6.6925 13.2096 6.7744C13.2915 6.85631 13.3893 6.92061 13.497 6.96336C13.6046 7.00611 13.7199 7.0264 13.8357 7.02299C13.9514 7.01959 14.0653 6.99255 14.1703 6.94354C14.2752 6.89453 14.3691 6.82459 14.446 6.73801L18.3 2.89001V6.13801C18.3 6.36344 18.3896 6.57964 18.549 6.73905C18.7084 6.89845 18.9246 6.98801 19.15 6.98801C19.3754 6.98801 19.5916 6.89845 19.751 6.73905C19.9104 6.57964 20 6.36344 20 6.13801V0.838007C20 0.726383 19.978 0.615852 19.9353 0.512726C19.8926 0.409599 19.83 0.315896 19.751 0.236966C19.6721 0.158036 19.5784 0.0954255 19.4753 0.052709C19.3722 0.00999249 19.2616 -0.0119934 19.15 -0.0119934H13.852H13.853ZM6.142 19.994C6.36743 19.994 6.58363 19.9045 6.74304 19.745C6.90245 19.5856 6.992 19.3694 6.992 19.144C6.992 18.9186 6.90245 18.7024 6.74304 18.543C6.58363 18.3836 6.36743 18.294 6.142 18.294H2.9L6.749 14.443C6.83558 14.3661 6.90553 14.2722 6.95453 14.1673C7.00354 14.0623 7.03058 13.9484 7.03399 13.8327C7.0374 13.7169 7.0171 13.6016 6.97435 13.494C6.93161 13.3863 6.8673 13.2885 6.7854 13.2066C6.70349 13.1247 6.6057 13.0604 6.49805 13.0177C6.39039 12.9749 6.27513 12.9546 6.15934 12.958C6.04356 12.9614 5.92969 12.9885 5.82474 13.0375C5.71978 13.0865 5.62595 13.1564 5.549 13.243L1.7 17.092V13.845C1.7 13.6196 1.61045 13.4034 1.45104 13.244C1.29163 13.0846 1.07543 12.995 0.85 12.995C0.624566 12.995 0.408365 13.0846 0.248959 13.244C0.0895533 13.4034 0 13.6196 0 13.845L0 19.145C0 19.3704 0.0895533 19.5866 0.248959 19.746C0.408365 19.9055 0.624566 19.995 0.85 19.995H6.142V19.994ZM13.853 19.994C13.6276 19.994 13.4114 19.9045 13.252 19.745C13.0926 19.5856 13.003 19.3694 13.003 19.144C13.003 18.9186 13.0926 18.7024 13.252 18.543C13.4114 18.3836 13.6276 18.294 13.853 18.294H17.095L13.246 14.443C13.1594 14.3661 13.0895 14.2722 13.0405 14.1673C12.9915 14.0623 12.9644 13.9484 12.961 13.8327C12.9576 13.7169 12.9779 13.6016 13.0206 13.494C13.0634 13.3863 13.1277 13.2885 13.2096 13.2066C13.2915 13.1247 13.3893 13.0604 13.497 13.0177C13.6046 12.9749 13.7199 12.9546 13.8357 12.958C13.9514 12.9614 14.0653 12.9885 14.1703 13.0375C14.2752 13.0865 14.3691 13.1564 14.446 13.243L18.295 17.093V13.845C18.295 13.6196 18.3846 13.4034 18.544 13.244C18.7034 13.0846 18.9196 12.995 19.145 12.995C19.3704 12.995 19.5866 13.0846 19.746 13.244C19.9054 13.4034 19.995 13.6196 19.995 13.845V19.145C19.995 19.3704 19.9054 19.5866 19.746 19.746C19.5866 19.9055 19.3704 19.995 19.145 19.995H13.852L13.853 19.994Z" fill="#1F1F1F"/>
</g>
<defs>
<clipPath id="clip0">
<rect width="20" height="20" fill="white"/>
</clipPath>
</defs>
</svg>
