<svg width="107" height="22" viewBox="0 0 107 22" fill="none" xmlns="http://www.w3.org/2000/svg">
<path fill-rule="evenodd" clip-rule="evenodd" d="M1.83767 7.98977C1.61223 7.98977 1.39603 7.90022 1.23663 7.74081C1.07722 7.5814 0.987668 7.3652 0.987668 7.13977C0.987668 6.91434 1.07722 6.69813 1.23663 6.53873C1.39603 6.37932 1.61223 6.28977 1.83767 6.28977H5.07867L1.23067 2.43877C1.08666 2.27673 1.01001 2.0658 1.01639 1.84911C1.02277 1.63243 1.1117 1.42637 1.26498 1.27308C1.41827 1.1198 1.62433 1.03087 1.84101 1.02449C2.0577 1.01811 2.26863 1.09477 2.43067 1.23877L6.27967 5.08877V1.83877C6.27967 1.61334 6.36922 1.39713 6.52863 1.23773C6.68803 1.07832 6.90423 0.98877 7.12967 0.98877C7.3551 0.98877 7.5713 1.07832 7.73071 1.23773C7.89011 1.39713 7.97967 1.61334 7.97967 1.83877V7.13877C7.97967 7.3642 7.89011 7.5804 7.73071 7.73981C7.5713 7.89922 7.3551 7.98877 7.12967 7.98877L1.83767 7.98977ZM20.1247 7.98977C20.3501 7.98977 20.5663 7.90022 20.7257 7.74081C20.8851 7.5814 20.9747 7.3652 20.9747 7.13977C20.9747 6.91434 20.8851 6.69813 20.7257 6.53873C20.5663 6.37932 20.3501 6.28977 20.1247 6.28977H16.8827L20.7317 2.43977C20.8757 2.27773 20.9523 2.0668 20.9459 1.85011C20.9396 1.63343 20.8506 1.42737 20.6974 1.27408C20.5441 1.1208 20.338 1.03187 20.1213 1.02549C19.9046 1.01911 19.6937 1.09577 19.5317 1.23977L15.6827 5.08977V1.83877C15.6827 1.72715 15.6607 1.61662 15.618 1.51349C15.5752 1.41036 15.5126 1.31666 15.4337 1.23773C15.3548 1.1588 15.2611 1.09619 15.1579 1.05347C15.0548 1.01076 14.9443 0.98877 14.8327 0.98877C14.721 0.98877 14.6105 1.01076 14.5074 1.05347C14.4043 1.09619 14.3106 1.1588 14.2316 1.23773C14.1527 1.31666 14.0901 1.41036 14.0474 1.51349C14.0047 1.61662 13.9827 1.72715 13.9827 1.83877V7.13877C13.9827 7.3642 14.0722 7.5804 14.2316 7.73981C14.391 7.89922 14.6072 7.98877 14.8327 7.98877H20.1267L20.1247 7.98977ZM1.83767 13.9898C1.61937 14.0004 1.41351 14.0945 1.26275 14.2528C1.112 14.411 1.02791 14.6212 1.02791 14.8398C1.02791 15.0583 1.112 15.2685 1.26275 15.4268C1.41351 15.585 1.61937 15.6792 1.83767 15.6898H5.07867L1.23067 19.5428C1.14408 19.6197 1.07414 19.7135 1.02513 19.8185C0.976127 19.9235 0.949089 20.0373 0.945681 20.1531C0.942272 20.2689 0.962565 20.3842 1.00531 20.4918C1.04806 20.5995 1.11236 20.6973 1.19427 20.7792C1.27618 20.8611 1.37396 20.9254 1.48162 20.9681C1.58928 21.0109 1.70454 21.0312 1.82032 21.0278C1.93611 21.0243 2.04997 20.9973 2.15493 20.9483C2.25989 20.8993 2.35372 20.8294 2.43067 20.7428L6.27967 16.8918V20.1388C6.27967 20.3642 6.36922 20.5804 6.52863 20.7398C6.68803 20.8992 6.90423 20.9888 7.12967 20.9888C7.3551 20.9888 7.5713 20.8992 7.73071 20.7398C7.89011 20.5804 7.97967 20.3642 7.97967 20.1388V14.8388C7.97967 14.6133 7.89011 14.3971 7.73071 14.2377C7.5713 14.0783 7.3551 13.9888 7.12967 13.9888L1.83767 13.9898ZM20.1247 13.9898C20.343 14.0004 20.5488 14.0945 20.6996 14.2528C20.8503 14.411 20.9344 14.6212 20.9344 14.8398C20.9344 15.0583 20.8503 15.2685 20.6996 15.4268C20.5488 15.585 20.343 15.6792 20.1247 15.6898H16.8827L20.7317 19.5388C20.8183 19.6157 20.8882 19.7095 20.9372 19.8145C20.9862 19.9195 21.0132 20.0333 21.0167 20.1491C21.0201 20.2649 20.9998 20.3802 20.957 20.4878C20.9143 20.5955 20.85 20.6933 20.7681 20.7752C20.6862 20.8571 20.5884 20.9214 20.4807 20.9641C20.3731 21.0069 20.2578 21.0272 20.142 21.0238C20.0262 21.0203 19.9124 20.9933 19.8074 20.9443C19.7024 20.8953 19.6086 20.8254 19.5317 20.7388L15.6827 16.8878V20.1348C15.6827 20.2464 15.6607 20.3569 15.618 20.4601C15.5752 20.5632 15.5126 20.6569 15.4337 20.7358C15.3548 20.8147 15.2611 20.8774 15.1579 20.9201C15.0548 20.9628 14.9443 20.9848 14.8327 20.9848C14.721 20.9848 14.6105 20.9628 14.5074 20.9201C14.4043 20.8774 14.3106 20.8147 14.2316 20.7358C14.1527 20.6569 14.0901 20.5632 14.0474 20.4601C14.0047 20.3569 13.9827 20.2464 13.9827 20.1348V14.8348C13.9827 14.6093 14.0722 14.3931 14.2316 14.2337C14.391 14.0743 14.6072 13.9848 14.8327 13.9848H20.1267L20.1247 13.9898Z" fill="#1F1F1F"/>
<path d="M38.9617 13.1998L35.4197 6.19977H36.5117L39.4797 12.1498L42.0557 6.19977H43.1197L38.7937 15.9998H37.7297L38.9617 13.1998Z" fill="#1F1F1F"/>
<path d="M45.2935 11.5198L44.5375 10.0078V15.9998H43.6135V8.99977H44.9015L47.1975 13.3258L49.4935 8.99977H50.7535V15.9998H49.8295V10.0078L49.0735 11.5198L47.6455 14.2498H46.7215L45.2935 11.5198Z" fill="#1F1F1F"/>
<path d="M55.7191 16.0978C54.7951 16.0978 54.0625 15.8178 53.5211 15.2578C52.9798 14.6884 52.7091 13.8718 52.7091 12.8078V12.1918C52.7091 11.1371 52.9798 10.3251 53.5211 9.75577C54.0718 9.18644 54.8045 8.90177 55.7191 8.90177C56.6338 8.90177 57.3618 9.18644 57.9031 9.75577C58.4538 10.3251 58.7291 11.1371 58.7291 12.1918V12.7658H53.6611V12.8078C53.6611 13.6198 53.8478 14.2264 54.2211 14.6278C54.5945 15.0291 55.0938 15.2298 55.7191 15.2298C56.2978 15.2298 56.7365 15.1084 57.0351 14.8658C57.3431 14.6231 57.5671 14.3198 57.7071 13.9558H58.6591C58.5845 14.2544 58.4725 14.5344 58.3231 14.7958C58.1738 15.0571 57.9778 15.2858 57.7351 15.4818C57.4925 15.6684 57.2031 15.8178 56.8671 15.9298C56.5311 16.0418 56.1485 16.0978 55.7191 16.0978ZM55.7191 9.76977C55.1125 9.76977 54.6271 9.9611 54.2631 10.3438C53.9085 10.7171 53.7078 11.2538 53.6611 11.9538H57.7631C57.7258 11.2258 57.5205 10.6798 57.1471 10.3158C56.7831 9.95177 56.3071 9.76977 55.7191 9.76977Z" fill="#1F1F1F"/>
<path d="M65.5057 12.8498H61.6137V15.9998H60.6897V8.99977H61.6137V12.0098H65.5057V8.99977H66.4297V15.9998H65.5057V12.8498Z" fill="#1F1F1F"/>
<path d="M68.8108 8.99977H69.7348V11.5198H71.2888C72.2874 11.5198 73.0108 11.7204 73.4588 12.1218C73.9068 12.5138 74.1308 13.0598 74.1308 13.7598C74.1308 14.4411 73.9021 14.9871 73.4448 15.3978C72.9874 15.7991 72.2688 15.9998 71.2888 15.9998H68.8108V8.99977ZM69.7348 12.3598V15.1598H71.2888C71.9794 15.1598 72.4648 15.0384 72.7448 14.7958C73.0341 14.5438 73.1788 14.1984 73.1788 13.7598C73.1788 13.3118 73.0341 12.9664 72.7448 12.7238C72.4648 12.4811 71.9794 12.3598 71.2888 12.3598H69.7348Z" fill="#1F1F1F"/>
<path d="M75.8108 8.99977H76.7348V15.1598H79.4788V8.99977H80.4028V15.1598H83.1468V8.99977H84.0708V15.9998H75.8108V8.99977Z" fill="#1F1F1F"/>
<path d="M91.2635 10.0638L90.3955 11.5198L87.5955 15.9998H86.4475V8.99977H87.3715V14.9498L88.2395 13.4798L91.0395 8.99977H92.1875V15.9998H91.2635V10.0638Z" fill="#1F1F1F"/>
<path d="M93.7286 8.99977H99.3286V9.83977H96.9906V15.9998H96.0666V9.83977H93.7286V8.99977Z" fill="#1F1F1F"/>
<path d="M100.871 8.99977H101.795V11.5198H103.349C104.348 11.5198 105.071 11.7204 105.519 12.1218C105.967 12.5138 106.191 13.0598 106.191 13.7598C106.191 14.4411 105.963 14.9871 105.505 15.3978C105.048 15.7991 104.329 15.9998 103.349 15.9998H100.871V8.99977ZM101.795 12.3598V15.1598H103.349C104.04 15.1598 104.525 15.0384 104.805 14.7958C105.095 14.5438 105.239 14.1984 105.239 13.7598C105.239 13.3118 105.095 12.9664 104.805 12.7238C104.525 12.4811 104.04 12.3598 103.349 12.3598H101.795Z" fill="#1F1F1F"/>
</svg>
