<svg width="101" height="21" viewBox="0 0 101 21" fill="none" xmlns="http://www.w3.org/2000/svg">
<path fill-rule="evenodd" clip-rule="evenodd" d="M6.142 0.987793C6.36743 0.987793 6.58363 1.07735 6.74304 1.23675C6.90245 1.39616 6.992 1.61236 6.992 1.83779C6.992 2.06323 6.90245 2.27943 6.74304 2.43883C6.58363 2.59824 6.36743 2.68779 6.142 2.68779H2.9L6.749 6.53779C6.83558 6.61474 6.90553 6.70857 6.95453 6.81353C7.00354 6.91849 7.03058 7.03235 7.03399 7.14814C7.0374 7.26392 7.0171 7.37918 6.97435 7.48684C6.93161 7.5945 6.8673 7.69228 6.7854 7.77419C6.70349 7.8561 6.6057 7.9204 6.49805 7.96315C6.39039 8.0059 6.27513 8.02619 6.15934 8.02278C6.04356 8.01937 5.92969 7.99233 5.82474 7.94333C5.71978 7.89432 5.62595 7.82438 5.549 7.73779L1.7 3.88979V7.13779C1.7 7.36323 1.61045 7.57943 1.45104 7.73883C1.29163 7.89824 1.07543 7.98779 0.85 7.98779C0.624566 7.98779 0.408365 7.89824 0.248959 7.73883C0.0895533 7.57943 0 7.36323 0 7.13779V1.83779C0 1.61236 0.0895533 1.39616 0.248959 1.23675C0.408365 1.07735 0.624566 0.987793 0.85 0.987793H6.142ZM13.853 0.987793C13.6276 0.987793 13.4114 1.07735 13.252 1.23675C13.0926 1.39616 13.003 1.61236 13.003 1.83779C13.003 2.06323 13.0926 2.27943 13.252 2.43883C13.4114 2.59824 13.6276 2.68779 13.853 2.68779H17.095L13.246 6.53779C13.1594 6.61474 13.0895 6.70857 13.0405 6.81353C12.9915 6.91849 12.9644 7.03235 12.961 7.14814C12.9576 7.26392 12.9779 7.37918 13.0206 7.48684C13.0634 7.5945 13.1277 7.69228 13.2096 7.77419C13.2915 7.8561 13.3893 7.9204 13.497 7.96315C13.6046 8.0059 13.7199 8.02619 13.8357 8.02278C13.9514 8.01937 14.0653 7.99233 14.1703 7.94333C14.2752 7.89432 14.3691 7.82438 14.446 7.73779L18.3 3.88979V7.13779C18.3 7.36323 18.3896 7.57943 18.549 7.73883C18.7084 7.89824 18.9246 7.98779 19.15 7.98779C19.3754 7.98779 19.5916 7.89824 19.751 7.73883C19.9104 7.57943 20 7.36323 20 7.13779V1.83779C20 1.72617 19.978 1.61564 19.9353 1.51251C19.8926 1.40939 19.83 1.31568 19.751 1.23675C19.6721 1.15782 19.5784 1.09521 19.4753 1.0525C19.3722 1.00978 19.2616 0.987793 19.15 0.987793H13.853ZM6.142 20.9938C6.36743 20.9938 6.58363 20.9042 6.74304 20.7448C6.90245 20.5854 6.992 20.3692 6.992 20.1438C6.992 19.9184 6.90245 19.7022 6.74304 19.5428C6.58363 19.3833 6.36743 19.2938 6.142 19.2938H2.9L6.749 15.4428C6.83558 15.3658 6.90553 15.272 6.95453 15.1671C7.00354 15.0621 7.03058 14.9482 7.03399 14.8324C7.0374 14.7167 7.0171 14.6014 6.97435 14.4937C6.93161 14.3861 6.8673 14.2883 6.7854 14.2064C6.70349 14.1245 6.6057 14.0602 6.49805 14.0174C6.39039 13.9747 6.27513 13.9544 6.15934 13.9578C6.04356 13.9612 5.92969 13.9883 5.82474 14.0373C5.71978 14.0863 5.62595 14.1562 5.549 14.2428L1.7 18.0918V14.8448C1.7 14.6194 1.61045 14.4032 1.45104 14.2438C1.29163 14.0843 1.07543 13.9948 0.85 13.9948C0.624566 13.9948 0.408365 14.0843 0.248959 14.2438C0.0895533 14.4032 0 14.6194 0 14.8448V20.1448C0 20.3702 0.0895533 20.5864 0.248959 20.7458C0.408365 20.9052 0.624566 20.9948 0.85 20.9948H6.142V20.9938ZM13.853 20.9938C13.6276 20.9938 13.4114 20.9042 13.252 20.7448C13.0926 20.5854 13.003 20.3692 13.003 20.1438C13.003 19.9184 13.0926 19.7022 13.252 19.5428C13.4114 19.3833 13.6276 19.2938 13.853 19.2938H17.095L13.246 15.4428C13.1594 15.3658 13.0895 15.272 13.0405 15.1671C12.9915 15.0621 12.9644 14.9482 12.961 14.8324C12.9576 14.7167 12.9779 14.6014 13.0206 14.4937C13.0634 14.3861 13.1277 14.2883 13.2096 14.2064C13.2915 14.1245 13.3893 14.0602 13.497 14.0174C13.6046 13.9747 13.7199 13.9544 13.8357 13.9578C13.9514 13.9612 14.0653 13.9883 14.1703 14.0373C14.2752 14.0863 14.3691 14.1562 14.446 14.2428L18.295 18.0928V14.8448C18.295 14.6194 18.3846 14.4032 18.544 14.2438C18.7034 14.0843 18.9196 13.9948 19.145 13.9948C19.3704 13.9948 19.5866 14.0843 19.746 14.2438C19.9054 14.4032 19.995 14.6194 19.995 14.8448V20.1448C19.995 20.3702 19.9054 20.5864 19.746 20.7458C19.5866 20.9052 19.3704 20.9948 19.145 20.9948H13.852L13.853 20.9938Z" fill="#1F1F1F"/>
<path d="M37.962 13.1998L34.42 6.19979H35.512L38.48 12.1498L41.056 6.19979H42.12L37.794 15.9998H36.73L37.962 13.1998Z" fill="#1F1F1F"/>
<path d="M42.6138 8.99979H45.2038C46.0532 8.99979 46.6738 9.17246 47.0658 9.51779C47.4578 9.86313 47.6538 10.3298 47.6538 10.9178C47.6538 11.2165 47.5792 11.4918 47.4298 11.7438C47.2805 11.9958 47.0565 12.2058 46.7578 12.3738C47.1498 12.5325 47.4438 12.7565 47.6398 13.0458C47.8358 13.3258 47.9338 13.6431 47.9338 13.9978C47.9338 14.6231 47.7378 15.1131 47.3458 15.4678C46.9538 15.8225 46.3332 15.9998 45.4838 15.9998H42.6138V8.99979ZM43.5378 12.8498V15.1598H45.4838C46.0345 15.1598 46.4218 15.0618 46.6458 14.8658C46.8698 14.6698 46.9818 14.3805 46.9818 13.9978C46.9818 13.6245 46.8698 13.3398 46.6458 13.1438C46.4218 12.9478 46.0345 12.8498 45.4838 12.8498H43.5378ZM43.5378 9.83979V12.0098H45.2038C45.7545 12.0098 46.1418 11.9165 46.3658 11.7298C46.5898 11.5338 46.7018 11.2631 46.7018 10.9178C46.7018 10.5818 46.5898 10.3205 46.3658 10.1338C46.1418 9.93779 45.7545 9.83979 45.2038 9.83979H43.5378Z" fill="#1F1F1F"/>
<path d="M52.4773 16.0978C51.5533 16.0978 50.8206 15.8178 50.2793 15.2578C49.7379 14.6885 49.4673 13.8718 49.4673 12.8078V12.1918C49.4673 11.1371 49.7379 10.3251 50.2793 9.75579C50.8299 9.18646 51.5626 8.90179 52.4773 8.90179C53.3919 8.90179 54.1199 9.18646 54.6613 9.75579C55.2119 10.3251 55.4873 11.1371 55.4873 12.1918V12.7658H50.4193V12.8078C50.4193 13.6198 50.6059 14.2265 50.9793 14.6278C51.3526 15.0291 51.8519 15.2298 52.4773 15.2298C53.0559 15.2298 53.4946 15.1085 53.7933 14.8658C54.1013 14.6231 54.3253 14.3198 54.4653 13.9558H55.4173C55.3426 14.2545 55.2306 14.5345 55.0813 14.7958C54.9319 15.0571 54.7359 15.2858 54.4933 15.4818C54.2506 15.6685 53.9613 15.8178 53.6253 15.9298C53.2893 16.0418 52.9066 16.0978 52.4773 16.0978ZM52.4773 9.76979C51.8706 9.76979 51.3853 9.96113 51.0213 10.3438C50.6666 10.7171 50.4659 11.2538 50.4193 11.9538H54.5213C54.4839 11.2258 54.2786 10.6798 53.9053 10.3158C53.5413 9.95179 53.0653 9.76979 52.4773 9.76979Z" fill="#1F1F1F"/>
<path d="M56.4011 15.2298H56.6111C56.7791 15.2298 56.9331 15.1925 57.0731 15.1178C57.2224 15.0338 57.3484 14.8845 57.4511 14.6698C57.5631 14.4551 57.6471 14.1658 57.7031 13.8018C57.7684 13.4285 57.8011 12.9478 57.8011 12.3598V8.99979H62.5611V15.9998H61.6371V9.83979H58.7251V12.3598C58.7251 13.0878 58.6738 13.6945 58.5711 14.1798C58.4778 14.6558 58.3378 15.0385 58.1511 15.3278C57.9644 15.6078 57.7404 15.8085 57.4791 15.9298C57.2178 16.0418 56.9284 16.0978 56.6111 16.0978H56.4011V15.2298Z" fill="#1F1F1F"/>
<path d="M69.756 10.0638L68.888 11.5198L66.088 15.9998H64.94V8.99979H65.864V14.9498L66.732 13.4798L69.532 8.99979H70.68V15.9998H69.756V10.0638Z" fill="#1F1F1F"/>
<path d="M77.0371 13.4098C76.8318 13.4565 76.5798 13.5031 76.2811 13.5498C75.9824 13.5965 75.6558 13.6198 75.3011 13.6198C74.3678 13.6198 73.6911 13.4191 73.2711 13.0178C72.8511 12.6071 72.6411 11.9678 72.6411 11.0998V8.99979H73.5651V11.0998C73.5651 11.7158 73.6911 12.1498 73.9431 12.4018C74.2044 12.6538 74.6571 12.7798 75.3011 12.7798C75.6558 12.7798 75.9824 12.7565 76.2811 12.7098C76.5798 12.6631 76.8318 12.6165 77.0371 12.5698V8.99979H77.9611V15.9998H77.0371V13.4098Z" fill="#1F1F1F"/>
<path d="M85.1505 10.0638L84.2825 11.5198L81.4825 15.9998H80.3345V8.99979H81.2585V14.9498L82.1265 13.4798L84.9265 8.99979H86.0745V15.9998H85.1505V10.0638Z" fill="#1F1F1F"/>
<path d="M87.6156 8.99979H93.2156V9.83979H90.8776V15.9998H89.9536V9.83979H87.6156V8.99979Z" fill="#1F1F1F"/>
<path d="M94.7584 8.99979H95.6824V11.5198H97.2364C98.235 11.5198 98.9584 11.7205 99.4064 12.1218C99.8544 12.5138 100.078 13.0598 100.078 13.7598C100.078 14.4411 99.8497 14.9871 99.3924 15.3978C98.935 15.7991 98.2164 15.9998 97.2364 15.9998H94.7584V8.99979ZM95.6824 12.3598V15.1598H97.2364C97.927 15.1598 98.4124 15.0385 98.6924 14.7958C98.9817 14.5438 99.1264 14.1985 99.1264 13.7598C99.1264 13.3118 98.9817 12.9665 98.6924 12.7238C98.4124 12.4811 97.927 12.3598 97.2364 12.3598H95.6824Z" fill="#1F1F1F"/>
</svg>
